HIERARCHY
ROOT Hips
{
	OFFSET 0.00000 0.00000 0.00000
	CHANNELS 6 Xposition Yposition Zposition Zrotation Yrotation Xrotation 
	JOINT LHipJoint
	{
		OFFSET 0 0 0
		CHANNELS 3 Zrotation Yrotation Xrotation
		JOINT LeftUpLeg
		{
			OFFSET 1.37324 -1.83837 0.85674
			CHANNELS 3 Zrotation Yrotation Xrotation
			JOINT LeftLeg
			{
				OFFSET 2.53826 -6.97383 0.00000
				CHANNELS 3 Zrotation Yrotation Xrotation
				JOINT LeftFoot
				{
					OFFSET 2.65296 -7.28895 0.00000
					CHANNELS 3 Zrotation Yrotation Xrotation
					JOINT LeftToeBase
					{
						OFFSET 0.22100 -0.60718 2.29776
						CHANNELS 3 Zrotation Yrotation Xrotation
						End Site
						{
							OFFSET 0.00000 -0.00000 1.19228
						}
					}
				}
			}
		}
	}
	JOINT RHipJoint
	{
		OFFSET 0 0 0
		CHANNELS 3 Zrotation Yrotation Xrotation
		JOINT RightUpLeg
		{
			OFFSET -1.30156 -1.83836 0.85673
			CHANNELS 3 Zrotation Yrotation Xrotation
			JOINT RightLeg
			{
				OFFSET -2.63627 -7.24310 0.00000
				CHANNELS 3 Zrotation Yrotation Xrotation
				JOINT RightFoot
				{
					OFFSET -2.62024 -7.19904 0.00000
					CHANNELS 3 Zrotation Yrotation Xrotation
					JOINT RightToeBase
					{
						OFFSET -0.20765 -0.57052 2.42402
						CHANNELS 3 Zrotation Yrotation Xrotation
						End Site
						{
							OFFSET -0.00000 -0.00000 1.24980
						}
					}
				}
			}
		}
	}
	JOINT LowerBack
	{
		OFFSET 0 0 0
		CHANNELS 3 Zrotation Yrotation Xrotation
		JOINT Spine
		{
			OFFSET 0.05739 2.14162 -0.22815
			CHANNELS 3 Zrotation Yrotation Xrotation
			JOINT Spine1
			{
				OFFSET 0.02798 2.14167 0.08145
				CHANNELS 3 Zrotation Yrotation Xrotation
				JOINT Neck
				{
					OFFSET 0 0 0
					CHANNELS 3 Zrotation Yrotation Xrotation
					JOINT Neck1
					{
						OFFSET -0.07019 1.58903 0.32980
						CHANNELS 3 Zrotation Yrotation Xrotation
						JOINT Head
						{
							OFFSET -0.03205 1.65283 -0.21190
							CHANNELS 3 Zrotation Yrotation Xrotation
							End Site
							{
								OFFSET -0.00726 1.66788 -0.10849
							}
						}
					}
				}
				JOINT LeftShoulder
				{
					OFFSET 0 0 0
					CHANNELS 3 Zrotation Yrotation Xrotation
					JOINT LeftArm
					{
						OFFSET 3.92858 0.97533 -0.07938
						CHANNELS 3 Zrotation Yrotation Xrotation
						JOINT LeftForeArm
						{
							OFFSET 5.58345 -0.00000 -0.00000
							CHANNELS 3 Zrotation Yrotation Xrotation
							JOINT LeftHand
							{
								OFFSET 3.71087 -0.00000 0.00000
								CHANNELS 3 Zrotation Yrotation Xrotation
								JOINT LeftFingerBase
								{
									OFFSET 0 0 0
									CHANNELS 3 Zrotation Yrotation Xrotation
									JOINT LeftHandIndex1
									{
										OFFSET 0.56232 -0.00000 -0.00000
										CHANNELS 3 Zrotation Yrotation Xrotation
										End Site
										{
											OFFSET 0.45336 -0.00000 -0.00000
										}
									}
								}
								JOINT LThumb
								{
									OFFSET 0 0 0
									CHANNELS 3 Zrotation Yrotation Xrotation
									End Site
									{
										OFFSET 0.46028 -0.00000 0.46028
									}
								}
							}
						}
					}
				}
				JOINT RightShoulder
				{
					OFFSET 0 0 0
					CHANNELS 3 Zrotation Yrotation Xrotation
					JOINT RightArm
					{
						OFFSET -3.89897 1.08887 -0.22589
						CHANNELS 3 Zrotation Yrotation Xrotation
						JOINT RightForeArm
						{
							OFFSET -5.20357 -0.00000 -0.00000
							CHANNELS 3 Zrotation Yrotation Xrotation
							JOINT RightHand
							{
								OFFSET -3.64937 -0.00000 0.00000
								CHANNELS 3 Zrotation Yrotation Xrotation
								JOINT RightFingerBase
								{
									OFFSET 0 0 0
									CHANNELS 3 Zrotation Yrotation Xrotation
									JOINT RightHandIndex1
									{
										OFFSET -0.61800 -0.00000 -0.00000
										CHANNELS 3 Zrotation Yrotation Xrotation
										End Site
										{
											OFFSET -0.49824 -0.00000 -0.00000
										}
									}
								}
								JOINT RThumb
								{
									OFFSET 0 0 0
									CHANNELS 3 Zrotation Yrotation Xrotation
									End Site
									{
										OFFSET -0.50585 -0.00000 0.50585
									}
								}
							}
						}
					}
				}
			}
		}
	}
}
MOTION
Frames: 15
Frame Time: .0083333
0.7306 15.0296 -7.0833 0 0 0 0 0 0 -21 0 0 0 0 0 0 0 0 0 0 0 0 0 0 21 0 0 0 0 0 0 0 0 0 0 0 0 0 0 0 0 0 0 0 0 0 0 -16 0 0 21 0 0 11 0 0 0 -8 0 0 0 0 0 0 0 0 0 0 0 0 0 0 0 0 0 0 0 0 8 0 0 0 0 0 0 0 0 0 0 0 0 0 0 0 0 0
0.7306 15.0296 -7.0833 -10.6663 6.8477 -21.2177 0.0000 0.0000 0.0000 -8.8194 -10.8242 -40.2725 11.9009 18.3484 65.6742 0.1975 -11.0679 -10.4475 0.6833 -5.2850 -14.7233 0.0000 0.0000 0.0000 26.9873 4.1487 -23.4452 -14.1242 -19.1513 72.5835 -1.2434 -2.5906 -22.1409 -0.4349 4.2320 -11.7302 6.2705 -0.0398 22.8469 4.5534 1.9881 3.2636 0.8398 0.8297 -9.1327 -4.0442 -3.6437 -20.4859 -1.4280 -3.3921 22.9429 -0.3608 -2.0834 10.8498 0.0000 0.0000 0.0000 -79.8580 26.1441 35.9977 121.2944 -55.9550 -86.7337 -0.0000 0.0000 -8.6379 25.5367 -6.9841 -3.3248 -7.1250 0.0000 -0.0000 -0.9085 22.2484 0.4969 0.0000 0.0000 0.0000 76.3915 -11.2354 30.5146 -79.8862 59.6099 -51.2527 0.0000 -0.0000 -3.2079 -34.7196 1.2203 -0.8455 7.1250 -0.0000 -0.0000 -6.3200 -28.4733 -2.5567
0.7361 15.0897 -6.6034 -10.7935 8.2591 -21.6286 0.0000 0.0000 0.0000 -9.6675 -12.4891 -38.3881 10.6007 17.7341 61.4778 0.0307 -12.1617 -8.9476 0.4822 -4.4531 -12.3551 0.0000 0.0000 0.0000 26.5835 2.1307 -22.8599 -14.8416 -19.3497 74.7592 -1.2198 -1.7104 -21.5475 -0.6488 5.1526 -14.3444 6.1386 -0.3381 22.4817 4.3858 1.5164 3.2581 0.8695 0.6125 -8.9538 -3.9700 -3.7704 -20.3880 -1.2150 -3.6603 22.7136 -0.3321 -2.1702 10.7513 0.0000 -0.0000 0.0000 -79.8490 26.8163 35.2926 120.0274 -56.3026 -85.6817 -0.0000 0.0000 -10.1314 25.2446 -7.4122 -3.4809 -7.1250 0.0000 -0.0000 -1.1370 21.7956 0.6337 0.0000 -0.0000 0.0000 76.0341 -10.4431 30.3645 -81.3152 59.7131 -52.4860 0.0000 -0.0000 -2.3610 -34.8867 1.2284 -0.8564 7.1250 -0.0000 -0.0000 -6.4483 -28.4595 -2.6113
0.7583 15.1284 -6.1457 -10.5377 8.3844 -22.0138 0.0000 0.0000 0.0000 -10.2774 -13.2446 -36.4995 9.6820 17.2271 58.4201 -0.0754 -13.1315 -8.2232 0.4025 -4.0729 -11.2818 0.0000 0.0000 0.0000 26.0169 1.3259 -22.6235 -15.9658 -19.6052 78.1297 -1.0478 -1.0885 -19.7645 -1.1739 6.8772 -19.3520 6.0647 -0.2631 22.5174 4.1551 1.5731 3.3103 0.6391 0.6395 -8.9074 -3.8155 -3.8358 -20.4377 -1.1410 -3.8220 22.4951 -0.3533 -2.2196 10.6792 0.0000 0.0000 0.0000 -79.6109 27.6664 35.0389 119.3452 -56.4819 -85.1136 -0.0000 0.0000 -12.1168 25.2596 -8.0231 -3.7678 -7.1250 0.0000 -0.0000 -1.1492 21.1221 0.6580 0.0000 0.0000 0.0000 75.6097 -9.9219 30.3701 -83.4808 59.8388 -54.3572 0.0000 -0.0000 -2.0493 -34.9207 1.3951 -0.9738 7.1250 -0.0000 -0.0000 -6.4601 -28.2568 -2.6473
0.7884 15.1545 -5.6941 -10.4965 8.3157 -22.3896 0.0000 0.0000 0.0000 -10.5561 -13.9695 -34.4019 8.8788 16.7291 55.6701 -0.1927 -13.9923 -7.3266 0.3556 -3.8313 -10.6026 0.0000 0.0000 0.0000 25.4815 0.9330 -22.9904 -17.1421 -19.8030 81.6175 -0.7029 -0.5275 -16.0408 -1.4026 7.4916 -21.1803 6.3702 -0.2512 22.5845 3.9594 1.6470 3.3425 0.2280 0.6624 -8.8891 -3.7019 -3.8928 -20.5311 -1.0820 -3.9515 22.3404 -0.3701 -2.2606 10.6394 0.0000 0.0000 0.0000 -79.3265 28.5597 35.0623 118.8649 -56.6049 -84.7128 -0.0000 0.0000 -13.9644 24.9472 -8.5414 -3.9524 -7.1250 0.0000 -0.0000 -1.3955 20.5757 0.8163 0.0000 0.0000 0.0000 75.1116 -9.4723 30.5038 -85.8989 59.9364 -56.4491 0.0000 -0.0000 -2.1439 -34.8995 1.6563 -1.1551 7.1250 -0.0000 -0.0000 -6.4210 -27.9411 -2.6794
0.8318 15.1630 -5.2475 -10.2157 8.1703 -22.6883 0.0000 0.0000 0.0000 -11.0182 -14.7385 -32.3214 8.3924 16.4004 53.9641 -0.2953 -14.6967 -6.5357 0.2970 -3.5045 -9.6867 0.0000 0.0000 0.0000 24.3920 0.7129 -23.9847 -18.4203 -19.9401 85.3768 -0.3249 -0.1607 -10.8270 -1.1007 6.6665 -18.7310 6.6649 -0.2302 22.6540 3.6718 1.7204 3.3790 -0.2781 0.6841 -8.8628 -3.6843 -3.9666 -20.7600 -1.0140 -4.0682 22.2774 -0.3703 -2.3031 10.6614 -0.0000 -0.0000 0.0000 -79.0490 29.3503 35.3441 118.4246 -56.7153 -84.3449 -0.0000 0.0000 -15.3479 24.7319 -8.7689 -4.0168 -7.1250 0.0000 -0.0000 -1.5594 20.3428 0.9204 -0.0000 -0.0000 0.0000 74.4957 -9.1886 30.7558 -88.8499 59.9950 -59.0040 0.0000 -0.0000 -2.5204 -34.7402 1.9381 -1.3435 7.1250 -0.0000 -0.0000 -6.2743 -27.6050 -2.6675
0.8783 15.1545 -4.7957 -9.7732 7.7886 -22.8098 0.0000 0.0000 0.0000 -11.5021 -15.2240 -30.5820 8.2701 16.3143 53.5297 -0.4026 -13.6447 -3.3841 0.0772 -1.7918 -4.9307 0.0000 0.0000 0.0000 23.1307 0.7186 -25.4317 -19.6381 -19.9969 88.9418 -0.0788 0.3240 -5.1933 -0.8375 5.8377 -16.3143 6.7849 -0.1095 22.4683 3.4188 1.8590 3.4241 -0.6639 0.7475 -8.6926 -3.6622 -3.9993 -20.9151 -1.0479 -4.1055 22.1647 -0.3934 -2.3218 10.6481 0.0000 -0.0000 0.0000 -78.9349 30.0548 35.6809 117.9249 -56.8380 -83.9269 -0.0000 0.0000 -16.1280 24.0913 -8.8653 -3.9420 -7.1250 0.0000 -0.0000 -2.0234 20.2869 1.1970 0.0000 -0.0000 0.0000 73.8146 -8.7829 30.9748 -91.8661 59.9868 -61.6160 0.0000 -0.0000 -3.0848 -34.1942 2.3534 -1.5982 7.1250 -0.0000 -0.0000 -5.8219 -27.1233 -2.5396
0.9253 15.1270 -4.3493 -8.9611 7.1539 -22.7592 0.0000 0.0000 0.0000 -12.4752 -14.3871 -29.5052 8.5996 16.5430 54.6948 -0.3201 -11.4027 -1.7280 0.0649 -1.6439 -4.5226 0.0000 0.0000 0.0000 21.5345 1.1027 -27.0336 -20.7240 -19.9874 92.1173 -0.0275 1.5409 -2.9734 -0.6724 5.2435 -14.6043 6.4927 0.1657 22.2973 3.1946 2.1101 3.3941 -0.8156 0.8732 -8.6216 -3.7942 -4.0015 -21.1204 -1.1239 -4.0339 22.2062 -0.3933 -2.3101 10.7031 0.0000 0.0000 0.0000 -79.0722 30.6727 36.1019 117.1642 -57.0194 -83.2895 -0.0000 0.0000 -15.9593 23.7713 -8.6878 -3.8063 -7.1250 0.0000 -0.0000 -2.2474 20.5040 1.3188 0.0000 0.0000 0.0000 72.9677 -8.3897 31.2346 -95.1003 59.9015 -64.4155 0.0000 -0.0000 -3.6097 -33.5474 2.7125 -1.7973 7.1250 -0.0000 -0.0000 -5.3006 -26.7181 -2.3609
0.9731 15.0873 -3.9124 -8.2919 6.6567 -22.9428 0.0000 0.0000 0.0000 -13.5072 -13.3710 -28.8974 9.3128 17.0049 57.1659 -0.2088 -11.6106 -4.6657 0.1015 -2.0543 -5.6556 0.0000 0.0000 0.0000 20.1102 1.1953 -28.5078 -21.5595 -19.9416 94.5640 -0.0553 2.6929 -4.3068 -0.6952 5.3301 -14.8526 6.2366 0.3235 22.4651 3.0674 2.2589 3.3538 -0.8563 0.9448 -8.7519 -3.9014 -3.9567 -21.2074 -1.3091 -3.8814 22.1878 -0.4205 -2.2732 10.7102 0.0000 0.0000 0.0000 -79.4059 31.1493 36.5371 116.1368 -57.2545 -82.4265 -0.0000 0.0000 -15.1121 23.2938 -8.4123 -3.6041 -7.1250 0.0000 -0.0000 -2.5834 20.8373 1.4970 0.0000 0.0000 0.0000 72.1065 -8.0403 31.4686 -98.3099 59.7375 -67.1902 0.0000 -0.0000 -3.4462 -32.8431 3.1295 -2.0183 7.1250 -0.0000 -0.0000 -4.7348 -26.2516 -2.1591
1.0176 15.0453 -3.4938 -7.6504 6.0641 -23.0517 0.0000 0.0000 0.0000 -14.1436 -12.7063 -29.0875 10.2403 17.5428 60.2884 -0.1762 -12.4447 -6.1198 0.0351 -1.2087 -3.3232 0.0000 0.0000 0.0000 19.0038 1.4674 -30.4716 -22.0799 -19.8960 96.0914 -0.0702 1.5083 -4.7071 -0.5741 4.8522 -13.4876 5.9263 0.4880 22.7576 2.9941 2.4220 3.2434 -0.8147 1.0202 -9.0316 -3.9703 -3.8848 -21.0721 -1.5389 -3.7055 22.0055 -0.4592 -2.2267 10.6138 -0.0000 0.0000 0.0000 -79.8929 31.4481 36.9297 114.8747 -57.5278 -81.3634 -0.0000 0.0000 -13.7609 23.0800 -8.0543 -3.4168 -7.1250 0.0000 -0.0000 -2.7289 21.2393 1.5567 -0.0000 0.0000 0.0000 71.3376 -7.7186 31.6655 -101.6059 59.4849 -70.0336 0.0000 -0.0000 -2.6682 -32.3944 3.4430 -2.1821 7.1250 -0.0000 -0.0000 -4.3727 -25.9011 -2.0290
1.0526 14.9996 -3.0846 -6.8851 5.5134 -23.2673 0.0000 0.0000 0.0000 -14.7213 -12.2014 -29.3023 11.1746 18.0195 63.3471 -0.0010 -10.5257 -7.3644 0.0109 -0.6744 -1.8533 0.0000 0.0000 0.0000 17.8955 1.9850 -32.2046 -22.2658 -19.8765 96.6380 -0.0836 -0.3935 -5.6203 -0.2983 3.5121 -9.7079 5.4008 0.6741 23.2415 2.8781 2.5641 3.1936 -0.6971 1.0923 -9.3557 -3.9813 -3.7939 -21.0712 -1.7273 -3.5264 21.8934 -0.4957 -2.1687 10.5678 -0.0000 -0.0000 0.0000 -80.4292 31.4348 37.3123 113.3685 -57.8325 -80.0905 -0.0000 0.0000 -12.0901 23.1188 -7.8149 -3.3223 -7.1250 0.0000 -0.0000 -2.6953 21.4958 1.5218 -0.0000 -0.0000 0.0000 70.8403 -7.3026 31.7476 -104.7728 59.1591 -72.7575 0.0000 -0.0000 -1.1560 -31.9162 3.4661 -2.1565 7.1250 -0.0000 -0.0000 -4.0105 -25.8956 -1.8606
1.0719 14.9346 -2.6776 -6.1039 5.1190 -23.7183 0.0000 0.0000 0.0000 -15.3699 -11.8485 -28.7174 11.9804 18.3824 65.9267 0.0741 -10.1042 -8.2486 0.0003 0.1191 0.3272 0.0000 0.0000 0.0000 16.9892 2.3742 -33.7803 -22.1080 -19.8931 96.1738 -0.1168 -1.9142 -7.4588 -0.1744 2.6900 -7.4168 4.6935 0.8199 23.9569 2.7455 2.6078 3.2660 -0.4701 1.1269 -9.6783 -3.9711 -3.6863 -21.1181 -1.8303 -3.3516 21.7440 -0.5063 -2.0995 10.5184 0.0000 0.0000 0.0000 -81.0370 31.0599 37.5328 111.6544 -58.1519 -78.6369 -0.0000 0.0000 -10.7328 23.3177 -7.8184 -3.3557 -7.1250 0.0000 -0.0000 -2.5509 21.4792 1.4411 0.0000 0.0000 0.0000 70.5877 -6.7541 31.7668 -107.6232 58.7933 -75.2003 0.0000 0.0000 0.5356 -31.8738 3.5406 -2.1991 7.1250 -0.0000 -0.0000 -3.9734 -25.8101 -1.8512
1.0696 14.8699 -2.2883 -5.5298 5.0815 -24.1361 0.0000 0.0000 0.0000 -15.9607 -11.5157 -28.1764 12.7018 18.6718 68.1967 0.0472 -11.2415 -8.5670 0.0725 1.7368 4.7789 0.0000 0.0000 0.0000 16.4318 2.5237 -35.4135 -21.5547 -19.9420 94.5497 -0.1402 -3.6716 -9.3983 -0.0802 1.8264 -5.0263 3.9474 0.8524 24.7702 2.6208 2.4892 3.3179 -0.1621 1.0863 -10.0814 -3.9811 -3.5769 -21.2796 -1.7396 -3.2118 21.6345 -0.4524 -2.0241 10.5086 -0.0000 0.0000 0.0000 -81.4683 30.5896 37.8660 110.0855 -58.4194 -77.3023 -0.0000 0.0000 -9.8623 24.0513 -7.9103 -3.5147 -7.1250 0.0000 -0.0000 -2.0209 21.3306 1.1481 -0.0000 0.0000 0.0000 70.6293 -6.1062 31.7123 -110.0363 58.4274 -77.2603 0.0000 0.0000 2.1447 -32.3224 3.6071 -2.2796 7.1250 -0.0000 -0.0000 -4.3066 -25.7111 -2.0172
1.0657 14.8162 -1.8991 -5.1132 4.8283 -24.0443 0.0000 0.0000 0.0000 -16.2132 -10.9148 -28.0979 13.3373 18.9006 70.1700 0.1485 -11.4099 -10.0149 0.1323 2.3447 6.4594 0.0000 0.0000 0.0000 16.2860 3.1720 -37.2662 -20.6190 -19.9908 91.8100 -0.1616 -5.1419 -11.1962 -0.0291 1.1009 -3.0265 3.4321 0.9108 25.0730 2.4898 2.4302 3.2532 -0.0003 1.0693 -10.3316 -4.2366 -3.4728 -21.7044 -1.2491 -3.0838 21.7413 -0.2245 -1.9266 10.6379 0.0000 -0.0000 0.0000 -81.9931 29.7239 37.9913 108.0341 -58.7347 -75.5516 -0.0000 0.0000 -9.5212 24.2709 -8.1295 -3.6484 -7.1250 0.0000 -0.0000 -1.8687 21.0761 1.0723 0.0000 -0.0000 0.0000 70.8702 -5.4956 31.5518 -112.1327 58.0657 -79.0430 0.0000 0.0000 3.5972 -32.6829 3.3584 -2.1524 7.1250 -0.0000 -0.0000 -4.5966 -25.9877 -2.1241
1.0735 14.7908 -1.5106 -5.2620 4.2676 -22.9530 0.0000 0.0000 0.0000 -15.6137 -10.6233 -28.8175 13.9229 19.0905 71.9690 0.2760 -11.8866 -11.7690 0.1384 2.3976 6.6059 0.0000 0.0000 0.0000 16.8723 4.2695 -39.7919 -19.2942 -19.9881 87.9359 -0.1939 -5.8354 -12.4574 -0.0324 1.1614 -3.1929 3.7081 0.8789 24.1888 2.4368 2.4183 2.9746 -0.1974 1.0526 -10.1631 -4.0638 -3.2991 -22.0199 -1.1907 -2.8984 21.6767 -0.2073 -1.8194 10.6668 0.0000 0.0000 0.0000 -82.5373 28.6019 37.9844 105.7691 -59.0393 -73.6123 -0.0000 0.0000 -9.8076 24.9369 -8.0693 -3.7343 -7.1250 0.0000 -0.0000 -1.3846 21.0946 0.7937 0.0000 0.0000 0.0000 71.2326 -4.8884 31.4955 -113.6714 57.7731 -80.3468 0.0000 0.0000 4.0026 -33.4825 3.0357 -2.0062 7.1250 -0.0000 -0.0000 -5.2255 -26.3353 -2.3743
